<svg width="24" height="25" viewBox="0 0 24 25" fill="none" xmlns="http://www.w3.org/2000/svg">
<path d="M12 2.64678C15.2063 2.64678 15.5859 2.66084 16.8469 2.71709C18.0188 2.76865 18.6516 2.96553 19.0734 3.12959C19.6313 3.34522 20.0344 3.60771 20.4516 4.0249C20.8734 4.44678 21.1313 4.84521 21.3469 5.40303C21.5109 5.8249 21.7078 6.4624 21.7594 7.62959C21.8156 8.89521 21.8297 9.2749 21.8297 12.4765C21.8297 15.6827 21.8156 16.0624 21.7594 17.3233C21.7078 18.4952 21.5109 19.128 21.3469 19.5499C21.1313 20.1077 20.8687 20.5108 20.4516 20.928C20.0297 21.3499 19.6313 21.6077 19.0734 21.8233C18.6516 21.9874 18.0141 22.1843 16.8469 22.2358C15.5813 22.2921 15.2016 22.3062 12 22.3062C8.79375 22.3062 8.41406 22.2921 7.15313 22.2358C5.98125 22.1843 5.34844 21.9874 4.92656 21.8233C4.36875 21.6077 3.96563 21.3452 3.54844 20.928C3.12656 20.5062 2.86875 20.1077 2.65313 19.5499C2.48906 19.128 2.29219 18.4905 2.24063 17.3233C2.18438 16.0577 2.17031 15.678 2.17031 12.4765C2.17031 9.27022 2.18438 8.89053 2.24063 7.62959C2.29219 6.45771 2.48906 5.8249 2.65313 5.40303C2.86875 4.84521 3.13125 4.44209 3.54844 4.0249C3.97031 3.60303 4.36875 3.34522 4.92656 3.12959C5.34844 2.96553 5.98594 2.76865 7.15313 2.71709C8.41406 2.66084 8.79375 2.64678 12 2.64678ZM12 0.48584C8.74219 0.48584 8.33438 0.499902 7.05469 0.556152C5.77969 0.612402 4.90313 0.818652 4.14375 1.11396C3.35156 1.42334 2.68125 1.83115 2.01563 2.50146C1.34531 3.16709 0.9375 3.8374 0.628125 4.6249C0.332812 5.38897 0.126563 6.26084 0.0703125 7.53584C0.0140625 8.82021 0 9.22803 0 12.4858C0 15.7437 0.0140625 16.1515 0.0703125 17.4312C0.126563 18.7062 0.332812 19.5827 0.628125 20.3421C0.9375 21.1343 1.34531 21.8046 2.01563 22.4702C2.68125 23.1358 3.35156 23.5483 4.13906 23.853C4.90313 24.1483 5.775 24.3546 7.05 24.4108C8.32969 24.4671 8.7375 24.4812 11.9953 24.4812C15.2531 24.4812 15.6609 24.4671 16.9406 24.4108C18.2156 24.3546 19.0922 24.1483 19.8516 23.853C20.6391 23.5483 21.3094 23.1358 21.975 22.4702C22.6406 21.8046 23.0531 21.1343 23.3578 20.3468C23.6531 19.5827 23.8594 18.7108 23.9156 17.4358C23.9719 16.1562 23.9859 15.7483 23.9859 12.4905C23.9859 9.23272 23.9719 8.8249 23.9156 7.54522C23.8594 6.27022 23.6531 5.39365 23.3578 4.63428C23.0625 3.8374 22.6547 3.16709 21.9844 2.50146C21.3188 1.83584 20.6484 1.42334 19.8609 1.11865C19.0969 0.82334 18.225 0.61709 16.95 0.56084C15.6656 0.499902 15.2578 0.48584 12 0.48584Z" fill="#F3F3F3"/>
<path d="M12 6.32178C8.59688 6.32178 5.83594 9.08272 5.83594 12.4858C5.83594 15.889 8.59688 18.6499 12 18.6499C15.4031 18.6499 18.1641 15.889 18.1641 12.4858C18.1641 9.08272 15.4031 6.32178 12 6.32178ZM12 16.4843C9.79219 16.4843 8.00156 14.6937 8.00156 12.4858C8.00156 10.278 9.79219 8.4874 12 8.4874C14.2078 8.4874 15.9984 10.278 15.9984 12.4858C15.9984 14.6937 14.2078 16.4843 12 16.4843Z" fill="#F3F3F3"/>
<path d="M19.8469 6.07822C19.8469 6.8751 19.2 7.51729 18.4078 7.51729C17.6109 7.51729 16.9688 6.87041 16.9688 6.07822C16.9688 5.28135 17.6156 4.63916 18.4078 4.63916C19.2 4.63916 19.8469 5.28604 19.8469 6.07822Z" fill="#F3F3F3"/>
</svg>
