<svg width="25" height="25" viewBox="0 0 25 25" fill="none" xmlns="http://www.w3.org/2000/svg">
<path d="M23.2093 0.483398H2.75771C1.77803 0.483398 0.98584 1.25684 0.98584 2.21309V22.749C0.98584 23.7053 1.77803 24.4834 2.75771 24.4834H23.2093C24.189 24.4834 24.9858 23.7053 24.9858 22.7537V2.21309C24.9858 1.25684 24.189 0.483398 23.2093 0.483398ZM8.10615 20.935H4.54365V9.47871H8.10615V20.935ZM6.3249 7.91777C5.18115 7.91777 4.25771 6.99434 4.25771 5.85527C4.25771 4.71621 5.18115 3.79277 6.3249 3.79277C7.46396 3.79277 8.3874 4.71621 8.3874 5.85527C8.3874 6.98965 7.46396 7.91777 6.3249 7.91777ZM21.4374 20.935H17.8796V15.3662C17.8796 14.0396 17.8562 12.3287 16.028 12.3287C14.1765 12.3287 13.8952 13.7771 13.8952 15.2725V20.935H10.3421V9.47871H13.7546V11.0443H13.8015C14.2749 10.1443 15.4374 9.19277 17.1671 9.19277C20.7718 9.19277 21.4374 11.5646 21.4374 14.649V20.935Z" fill="#F3F3F3"/>
</svg>
