<svg width="32" height="33" viewBox="0 0 32 33" fill="none" xmlns="http://www.w3.org/2000/svg">
<g clip-path="url(#clip0_140_273)">
<path d="M16.0001 0.483398C9.48194 0.483398 4.1792 5.78614 4.1792 12.3043C4.1792 14.4502 5.14156 16.7581 5.18189 16.8554C5.49272 17.5932 6.10601 18.7391 6.54826 19.4108L14.6533 31.6914C14.9849 32.1948 15.4759 32.4834 16.0001 32.4834C16.5244 32.4834 17.0154 32.1948 17.347 31.6921L25.4527 19.4108C25.8957 18.7391 26.5083 17.5932 26.8191 16.8554C26.8594 16.7588 27.8211 14.4509 27.8211 12.3043C27.8211 5.78614 22.5184 0.483398 16.0001 0.483398ZM25.5369 16.3158C25.2594 16.9771 24.6885 18.0431 24.2915 18.6452L16.1858 30.9265C16.0259 31.1692 15.9751 31.1692 15.8152 30.9265L7.70949 18.6452C7.31245 18.0431 6.74156 16.9764 6.46412 16.3151C6.4523 16.2866 5.5699 14.1623 5.5699 12.3043C5.5699 6.55311 10.2489 1.8741 16.0001 1.8741C21.7514 1.8741 26.4304 6.55311 26.4304 12.3043C26.4304 14.1651 25.5459 16.295 25.5369 16.3158Z" fill="white"/>
<path d="M16.0003 6.04688C12.5493 6.04688 9.74219 8.8547 9.74219 12.305C9.74219 15.7553 12.5493 18.5632 16.0003 18.5632C19.4514 18.5632 22.2585 15.7553 22.2585 12.305C22.2585 8.8547 19.4514 6.04688 16.0003 6.04688ZM16.0003 17.1725C13.317 17.1725 11.1329 14.9891 11.1329 12.305C11.1329 9.62097 13.317 7.43757 16.0003 7.43757C18.6837 7.43757 20.8678 9.62097 20.8678 12.305C20.8678 14.9891 18.6837 17.1725 16.0003 17.1725Z" fill="white"/>
</g>
<defs>
<clipPath id="clip0_140_273">
<rect width="32" height="32" fill="white" transform="translate(0 0.483398)"/>
</clipPath>
</defs>
</svg>
