<svg width="24" height="25" viewBox="0 0 24 25" fill="none" xmlns="http://www.w3.org/2000/svg">
<path fill-rule="evenodd" clip-rule="evenodd" d="M14.92 3.2702C12.967 3.22113 11.033 3.22113 9.07999 3.2702L9.02182 3.27166C7.497 3.30994 6.27002 3.34075 5.2867 3.512C4.2572 3.69129 3.42048 4.03517 2.71362 4.74472C2.00971 5.4513 1.66764 6.27599 1.49176 7.2888C1.32429 8.25317 1.29878 9.4502 1.26719 10.933L1.26593 10.9918C1.24469 11.9881 1.24469 12.9786 1.26594 13.975L1.26719 14.0337C1.29879 15.5166 1.32429 16.7136 1.49176 17.678C1.66764 18.6908 2.00972 19.5155 2.71362 20.222C3.42048 20.9316 4.2572 21.2755 5.2867 21.4548C6.27001 21.626 7.49697 21.6568 9.02177 21.6951L9.07999 21.6966C11.033 21.7456 12.967 21.7456 14.92 21.6966L14.9782 21.6951C16.503 21.6568 17.73 21.626 18.7133 21.4548C19.7428 21.2755 20.5795 20.9316 21.2864 20.222C21.9903 19.5155 22.3324 18.6908 22.5082 17.678C22.6757 16.7136 22.7012 15.5166 22.7328 14.0337L22.7341 13.975C22.7553 12.9786 22.7553 11.9881 22.7341 10.9918L22.7328 10.933C22.7012 9.45022 22.6757 8.25319 22.5082 7.28882C22.3324 6.27601 21.9903 5.45132 21.2864 4.74474C20.5795 4.03519 19.7428 3.69131 18.7133 3.51202C17.73 3.34076 16.503 3.30995 14.9782 3.27167L14.92 3.2702ZM7.38182 8.33792C7.02527 8.12711 6.56533 8.24526 6.35452 8.60181C6.14371 8.95837 6.26186 9.41831 6.61841 9.62912L9.56043 11.3685C10.4313 11.8834 11.1827 12.2335 12.0001 12.2335C12.8175 12.2335 13.569 11.8834 14.4398 11.3685L17.3818 9.62912C17.7384 9.41831 17.8565 8.95837 17.6457 8.60181C17.4349 8.24526 16.975 8.12711 16.6184 8.33792L13.6764 10.0774C12.832 10.5765 12.3831 10.7335 12.0001 10.7335C11.6171 10.7335 11.1682 10.5765 10.3238 10.0774L7.38182 8.33792Z" fill="white"/>
</svg>
