<svg width="24" height="25" viewBox="0 0 24 25" fill="none" xmlns="http://www.w3.org/2000/svg">
<path d="M17.6252 14.6576L20.2682 16.2336C20.8142 16.5596 21.0961 17.1936 20.9711 17.8176C20.4601 20.3766 17.8902 22.0166 15.3732 21.3256C9.4342 19.6956 4.79509 15.0706 3.15909 9.11864C2.46709 6.60064 4.10519 4.02862 6.66519 3.51662L6.68204 3.51363C7.30704 3.38863 7.94419 3.67163 8.26919 4.22063L9.83218 6.85964C10.3882 7.79864 10.112 9.00762 9.20303 9.61162L7.54214 10.7166C8.71414 13.5236 10.9541 15.7726 13.7531 16.9426L14.8681 15.2776C15.4771 14.3706 16.6872 14.0986 17.6252 14.6576Z" fill="#FEFEFE"/>
</svg>
