<svg width="24" height="25" viewBox="0 0 24 25" fill="none" xmlns="http://www.w3.org/2000/svg">
<path d="M21.6729 12.665V12.2287C21.6729 12.0105 21.5274 11.865 21.3092 11.865H21.2729C21.2001 6.77413 17.0547 2.66504 11.9638 2.66504C6.87286 2.66504 2.72741 6.77413 2.65468 11.865C2.47286 11.9014 2.32741 12.0469 2.32741 12.2287V12.665C1.20013 12.8105 0.36377 13.7923 0.36377 14.9559V15.3196C0.36377 16.4832 1.20013 17.4287 2.32741 17.6105V18.0469C2.32741 18.265 2.47286 18.4105 2.69104 18.4105H4.94559C5.16377 18.4105 5.30922 18.265 5.30922 18.0469V12.2287C5.30922 12.0105 5.16377 11.865 4.94559 11.865H4.76377C4.8365 7.93777 8.0365 4.77413 11.9638 4.77413C15.891 4.77413 19.091 7.93777 19.1638 11.865H19.0547C18.8365 11.865 18.691 12.0105 18.691 12.2287V18.0469C18.691 18.265 18.8365 18.4105 19.0547 18.4105H19.9274C19.8547 19.7559 18.9456 20.9559 17.6365 21.3923C16.7638 21.6832 15.782 21.6105 14.9456 21.1741C15.0183 20.9923 15.0183 20.8105 14.9456 20.665L14.5092 19.3923C14.4001 19.1014 14.2183 18.8832 13.9638 18.7378C13.7092 18.5923 13.382 18.5923 13.1274 18.665C12.8001 18.7741 12.582 19.1378 12.691 19.5014L12.7274 19.6832L12.7638 19.7196C13.0547 20.4469 13.5638 21.1014 14.2183 21.5378C14.9092 22.0105 15.7456 22.265 16.5456 22.265C16.982 22.265 17.4183 22.1923 17.8547 22.0469C19.4547 21.5014 20.5456 20.0469 20.6183 18.3741H21.2729C21.491 18.3741 21.6365 18.2287 21.6365 18.0105V17.5741C22.7638 17.3923 23.6001 16.4469 23.6001 15.2832V14.9196C23.6365 13.7923 22.8001 12.8105 21.6729 12.665ZM4.61832 17.6832H3.05468V12.5923H4.58195V17.6832H4.61832ZM20.9456 17.6832H19.4183V12.5923H20.9456V17.6832Z" fill="white"/>
<path d="M17.0546 15.6109L15.5273 14.6655C15.8909 14.0109 16.0728 13.2473 16.0728 12.4836C16.0728 9.90183 14 7.8291 11.4182 7.8291C8.8364 7.8291 6.76367 9.90183 6.76367 12.4836C6.76367 15.0655 8.8364 17.1382 11.4182 17.1382C12.2546 17.1382 13.0909 16.92 13.8182 16.4473L16.8364 16.3018C16.9819 16.3018 17.1273 16.1927 17.1637 16.0473C17.2364 15.8655 17.1637 15.72 17.0546 15.6109ZM13.0546 14.3018H9.85458C9.6364 14.3018 9.49094 14.1564 9.49094 13.9382C9.49094 13.72 9.6364 13.5746 9.85458 13.5746H13.0546C13.2728 13.5746 13.4182 13.72 13.4182 13.9382C13.4182 14.1564 13.2728 14.3018 13.0546 14.3018ZM13.0546 12.8473H9.85458C9.6364 12.8473 9.49094 12.7018 9.49094 12.4836C9.49094 12.2655 9.6364 12.12 9.85458 12.12H13.0546C13.2728 12.12 13.4182 12.2655 13.4182 12.4836C13.4182 12.7018 13.2728 12.8473 13.0546 12.8473ZM13.0546 11.3927H9.85458C9.6364 11.3927 9.49094 11.2473 9.49094 11.0291C9.49094 10.8109 9.6364 10.6655 9.85458 10.6655H13.0546C13.2728 10.6655 13.4182 10.8109 13.4182 11.0291C13.4182 11.2473 13.2728 11.3927 13.0546 11.3927Z" fill="white"/>
</svg>
