<svg width="24" height="25" viewBox="0 0 24 25" fill="none" xmlns="http://www.w3.org/2000/svg">
<g clip-path="url(#clip0_140_278)">
<path fill-rule="evenodd" clip-rule="evenodd" d="M19.1503 3.75321C17.0453 1.64577 14.2459 0.484629 11.2635 0.483398C5.11802 0.483398 0.116484 5.48479 0.114023 11.6319C0.11318 13.597 0.626496 15.5151 1.60222 17.206L0.0205078 22.9834L5.93101 21.4329C7.55959 22.3213 9.39309 22.7895 11.2589 22.79H11.2636C17.4084 22.79 22.4105 17.7882 22.4128 11.6408C22.4141 8.66162 21.2554 5.86054 19.1503 3.75321ZM11.2635 20.9071H11.2596C9.59686 20.9064 7.96606 20.4595 6.54304 19.6153L6.20484 19.4144L2.69744 20.3345L3.63358 16.9149L3.41315 16.5643C2.48552 15.0888 1.99566 13.3835 1.9965 11.6326C1.99843 6.52324 6.15566 2.36644 11.2672 2.36644C13.7424 2.36725 16.0692 3.33239 17.8187 5.08401C19.5683 6.83564 20.5313 9.16393 20.5304 11.6401C20.5283 16.7498 16.3713 20.9071 11.2635 20.9071ZM16.3466 13.9666C16.0681 13.8271 14.6983 13.1534 14.4429 13.0603C14.1877 12.9673 14.0018 12.921 13.8163 13.1998C13.6305 13.4785 13.0967 14.1061 12.9341 14.2919C12.7715 14.4779 12.6091 14.5012 12.3305 14.3617C12.0519 14.2223 11.1543 13.928 10.0901 12.9789C9.26203 12.2402 8.70297 11.328 8.54038 11.0492C8.37806 10.7701 8.53897 10.6339 8.66258 10.4806C8.96415 10.1062 9.26614 9.71353 9.35899 9.52773C9.45194 9.34175 9.40539 9.17905 9.33564 9.03965C9.26614 8.90026 8.70902 7.52902 8.47692 6.97106C8.25062 6.42807 8.02112 6.50137 7.85001 6.4929C7.6877 6.48478 7.50189 6.48313 7.31609 6.48313C7.1304 6.48313 6.82855 6.55273 6.57314 6.83181C6.31783 7.11073 5.59826 7.78461 5.59826 9.15584C5.59826 10.5271 6.59648 11.8517 6.73574 12.0377C6.87495 12.2236 8.70023 15.0375 11.4947 16.2441C12.1594 16.5314 12.6782 16.7026 13.0829 16.831C13.7504 17.043 14.3575 17.0131 14.8376 16.9414C15.3729 16.8614 16.4857 16.2674 16.718 15.6167C16.9501 14.966 16.9501 14.4083 16.8803 14.2919C16.8109 14.1758 16.6251 14.1061 16.3466 13.9666Z" fill="white"/>
</g>
<defs>
<clipPath id="clip0_140_278">
<rect width="24" height="24" fill="white" transform="translate(0 0.483398)"/>
</clipPath>
</defs>
</svg>
