<svg width="17" height="18" viewBox="0 0 17 18" fill="none" xmlns="http://www.w3.org/2000/svg">
<path d="M5.16667 12.3222L11.2194 12.3222C14.959 12.3222 15.5277 9.97289 16.2175 6.54641C16.4165 5.55811 16.516 5.06396 16.2767 4.73474C16.0375 4.40552 15.5789 4.40552 14.6617 4.40552L3.5 4.40552" stroke="white" stroke-linecap="round"/>
<path d="M5.16683 12.3222L2.98244 1.91796C2.79695 1.17601 2.13031 0.655518 1.36554 0.655518L0.583496 0.655518" stroke="white" stroke-linecap="round"/>
<path d="M5.9 12.322H5.55714C4.42101 12.322 3.5 13.2814 3.5 14.4649C3.5 14.6621 3.6535 14.822 3.84286 14.822L13.0833 14.822" stroke="white" stroke-linecap="round" stroke-linejoin="round"/>
<ellipse cx="7.25" cy="16.072" rx="1.25" ry="1.25" stroke="white"/>
<ellipse cx="13.0835" cy="16.072" rx="1.25" ry="1.25" stroke="white"/>
</svg>
