<svg width="24" height="24" viewBox="0 0 24 24" fill="none" xmlns="http://www.w3.org/2000/svg">
<path d="M12 1.24438C12.5612 1.24439 13.0185 1.48063 13.4346 1.7981C13.8242 2.09536 14.2541 2.52482 14.7568 3.02759L14.792 3.06372C15.3065 3.57825 15.7556 3.78052 16.4482 3.78052C16.5348 3.78051 16.6447 3.77719 16.7686 3.77368C17.0833 3.76477 17.4903 3.75344 17.8457 3.78345C18.3673 3.82749 19.0204 3.9681 19.5186 4.46216C20.0205 4.96001 20.1646 5.61604 20.21 6.14087C20.241 6.4996 20.2296 6.90988 20.2207 7.22681C20.2172 7.35021 20.2139 7.45949 20.2139 7.54614C20.2139 7.99668 20.2638 8.24871 20.3506 8.44751C20.4398 8.65174 20.597 8.86875 20.9307 9.20239L20.9668 9.23755C21.4696 9.74026 21.899 10.1702 22.1963 10.5598C22.5137 10.9759 22.75 11.4332 22.75 11.9944C22.75 12.5555 22.5138 13.0129 22.1963 13.429C21.8989 13.8187 21.4688 14.2483 20.9658 14.7512L20.9307 14.7864C20.597 15.12 20.4398 15.337 20.3506 15.5413C20.2638 15.7401 20.2139 15.9921 20.2139 16.4426C20.2139 16.5293 20.2172 16.6386 20.2207 16.762C20.2296 17.0789 20.241 17.4892 20.21 17.8479C20.1646 18.3727 20.0205 19.0288 19.5186 19.5266C19.0204 20.0206 18.3672 20.1613 17.8457 20.2053C17.4903 20.2353 17.0833 20.224 16.7686 20.2151C16.6447 20.2116 16.5348 20.2083 16.4482 20.2083C16.007 20.2083 15.7587 20.2527 15.5635 20.3333C15.3685 20.4137 15.1597 20.5573 14.8457 20.8713C14.7786 20.9384 14.6899 21.0335 14.5879 21.1428C14.358 21.3893 14.0595 21.7103 13.7803 21.9543C13.3565 22.3247 12.7484 22.7444 12 22.7444C11.2516 22.7444 10.6435 22.3248 10.2197 21.9543C9.94051 21.7103 9.64205 21.3893 9.41211 21.1428C9.31011 21.0335 9.2214 20.9384 9.1543 20.8713C8.84029 20.5573 8.63146 20.4137 8.43652 20.3333C8.24133 20.2527 7.99297 20.2083 7.55176 20.2083C7.46524 20.2083 7.35532 20.2116 7.23145 20.2151C6.91673 20.224 6.50971 20.2353 6.1543 20.2053C5.63276 20.1613 4.97962 20.0206 4.48145 19.5266C3.97949 19.0288 3.83543 18.3727 3.79004 17.8479C3.75904 17.4892 3.77038 17.0789 3.7793 16.762C3.78277 16.6386 3.78612 16.5293 3.78613 16.4426C3.78613 15.9921 3.73617 15.7401 3.64941 15.5413C3.56021 15.337 3.40297 15.12 3.06934 14.7864L3.03418 14.7512C2.5312 14.2483 2.10107 13.8187 1.80371 13.429C1.48625 13.0129 1.25002 12.5555 1.25 11.9944C1.25001 11.4332 1.48625 10.9759 1.80371 10.5598C2.10097 10.1702 2.53044 9.74026 3.0332 9.23755L3.06934 9.20239C3.58397 8.68774 3.78613 8.23854 3.78613 7.54614C3.78613 7.45963 3.7828 7.34969 3.7793 7.22583C3.77038 6.91111 3.75906 6.50411 3.78906 6.14868C3.8331 5.62713 3.97374 4.97402 4.46777 4.47583C4.96562 3.97387 5.62166 3.82981 6.14648 3.78442C6.50522 3.75343 6.91549 3.76476 7.23242 3.77368C7.35583 3.77715 7.4651 3.78051 7.55176 3.78052C8.24415 3.78052 8.69337 3.57834 9.20801 3.06372L9.24316 3.02759C9.74588 2.52482 10.1758 2.09536 10.5654 1.7981C10.9815 1.48063 11.4388 1.24438 12 1.24438ZM15.8867 9.03247C15.6315 8.54284 15.0278 8.35259 14.5381 8.60767C13.1103 9.35135 11.9456 10.7751 11.1758 11.8977C10.9589 12.2139 10.7654 12.5173 10.5996 12.7913C10.4865 12.6955 10.377 12.6093 10.2764 12.5334C10.0613 12.3715 9.86788 12.2437 9.72656 12.1555L9.47949 12.01L9.47754 12.009C8.99223 11.7454 8.3847 11.9251 8.12109 12.4104C7.85787 12.8954 8.03781 13.5021 8.52246 13.7659C8.66621 13.8568 8.97761 14.058 9.07324 14.1321C9.40682 14.3833 9.74693 14.6983 9.95312 15.0266C10.1468 15.3349 10.4929 15.5139 10.8564 15.4934C11.22 15.4728 11.5435 15.2552 11.7012 14.927C11.7523 14.8239 11.8829 14.5698 11.9932 14.3752C12.1882 14.0243 12.472 13.5437 12.8252 13.0286C13.5553 11.9638 14.49 10.8873 15.4619 10.3811C15.9517 10.126 16.1418 9.52228 15.8867 9.03247Z" fill="#00C951"/>
</svg>
