<svg width="20" height="20" viewBox="0 0 20 20" fill="none" xmlns="http://www.w3.org/2000/svg">
<path d="M18.0608 10.1515V9.78787C18.0608 9.60606 17.9396 9.48484 17.7578 9.48484H17.7275C17.6669 5.24242 14.2123 1.81818 9.96989 1.81818C5.72747 1.81818 2.27292 5.24242 2.21231 9.48484C2.0608 9.51515 1.93959 9.63636 1.93959 9.78787V10.1515C1.00019 10.2727 0.303223 11.0909 0.303223 12.0606V12.3636C0.303223 13.3333 1.00019 14.1212 1.93959 14.2727V14.6364C1.93959 14.8182 2.0608 14.9394 2.24262 14.9394H4.1214C4.30322 14.9394 4.42443 14.8182 4.42443 14.6364V9.78787C4.42443 9.60606 4.30322 9.48484 4.1214 9.48484H3.96989C4.0305 6.21212 6.69716 3.57575 9.96989 3.57575C13.2426 3.57575 15.9093 6.21212 15.9699 9.48484H15.879C15.6972 9.48484 15.5759 9.60606 15.5759 9.78787V14.6364C15.5759 14.8182 15.6972 14.9394 15.879 14.9394H16.6063C16.5456 16.0606 15.7881 17.0606 14.6972 17.4242C13.9699 17.6667 13.1517 17.6061 12.4547 17.2424C12.5153 17.0909 12.5153 16.9394 12.4547 16.8182L12.0911 15.7576C12.0002 15.5151 11.8487 15.3333 11.6366 15.2121C11.4244 15.0909 11.1517 15.0909 10.9396 15.1515C10.6669 15.2424 10.485 15.5454 10.5759 15.8485L10.6063 16L10.6366 16.0303C10.879 16.6364 11.3032 17.1818 11.8487 17.5455C12.4244 17.9394 13.1214 18.1515 13.7881 18.1515C14.1517 18.1515 14.5153 18.0909 14.879 17.9697C16.2123 17.5151 17.1214 16.303 17.182 14.9091H17.7275C17.9093 14.9091 18.0305 14.7879 18.0305 14.6061V14.2424C18.9699 14.0909 19.6669 13.303 19.6669 12.3333V12.0303C19.6972 11.0909 19.0002 10.2727 18.0608 10.1515ZM3.84868 14.3333H2.54565V10.0909H3.81837V14.3333H3.84868ZM17.4547 14.3333H16.182V10.0909H17.4547V14.3333Z" fill="white"/>
<path d="M14.212 12.6061L12.9393 11.8182C13.2423 11.2727 13.3938 10.6364 13.3938 10C13.3938 7.84849 11.6665 6.12122 9.51502 6.12122C7.3635 6.12122 5.63623 7.84849 5.63623 10C5.63623 12.1515 7.3635 13.8788 9.51502 13.8788C10.212 13.8788 10.909 13.697 11.515 13.303L14.0302 13.1818C14.1514 13.1818 14.2726 13.0909 14.3029 12.9697C14.3635 12.8182 14.3029 12.697 14.212 12.6061ZM10.8787 11.5152H8.21199C8.03017 11.5152 7.90896 11.3939 7.90896 11.2121C7.90896 11.0303 8.03017 10.9091 8.21199 10.9091H10.8787C11.0605 10.9091 11.1817 11.0303 11.1817 11.2121C11.1817 11.3939 11.0605 11.5152 10.8787 11.5152ZM10.8787 10.303H8.21199C8.03017 10.303 7.90896 10.1818 7.90896 10C7.90896 9.81819 8.03017 9.69697 8.21199 9.69697H10.8787C11.0605 9.69697 11.1817 9.81819 11.1817 10C11.1817 10.1818 11.0605 10.303 10.8787 10.303ZM10.8787 9.09091H8.21199C8.03017 9.09091 7.90896 8.9697 7.90896 8.78788C7.90896 8.60606 8.03017 8.48485 8.21199 8.48485H10.8787C11.0605 8.48485 11.1817 8.60606 11.1817 8.78788C11.1817 8.9697 11.0605 9.09091 10.8787 9.09091Z" fill="white"/>
</svg>
