<svg width="14" height="15" viewBox="0 0 14 15" fill="none" xmlns="http://www.w3.org/2000/svg">
<path d="M0.4375 11.2037V4.09436L1.25781 2.72717H5.35938L7 3.00061L8.64062 2.72717H12.7422L13.5625 4.09436V11.2037L12.7422 12.5709H8.64062L7 12.2975L5.35938 12.5709H1.25781L0.4375 11.2037Z" fill="#0053B5"/>
<path d="M0.4375 6.00842H13.5625V9.28967H0.4375V6.00842Z" fill="white"/>
<path d="M0.4375 6.5553H13.5625V8.7428H0.4375V6.5553Z" fill="#D80027"/>
<path d="M5.35938 2.72717H8.64062V12.5709H5.35938V2.72717Z" fill="white"/>
<path d="M5.90625 2.72717H8.09375V12.5709H5.90625V2.72717Z" fill="#D80027"/>
<path d="M13.5625 2.72717H12.7422L8.64062 5.46155V6.28186L10.8281 6.00842L13.5625 4.09436V2.72717Z" fill="white"/>
<path d="M13.5625 2.72717L8.64062 6.00842H10.0078L13.5625 3.54749V2.72717Z" fill="#D80027"/>
<path d="M0.4375 2.72717H1.25781L5.35938 5.46155V6.28186L3.17188 6.00842L0.4375 4.09436V2.72717Z" fill="white"/>
<path d="M0.4375 2.72717L5.35938 6.00842H3.99219L0.4375 3.54749V2.72717Z" fill="#D80027"/>
<path d="M0.4375 12.5709H1.25781L5.35938 9.83655V9.01624L3.17188 9.28967L0.4375 11.2037V12.5709Z" fill="white"/>
<path d="M0.4375 12.5709L5.35938 9.28967H3.99219L0.4375 11.7506V12.5709Z" fill="#D80027"/>
<path d="M13.5625 12.5709H12.7422L8.64062 9.83655V9.01624L10.8281 9.28967L13.5625 11.2037V12.5709Z" fill="white"/>
<path d="M13.5625 12.5709L8.64062 9.28967H10.0078L13.5625 11.7506V12.5709Z" fill="#D80027"/>
</svg>
