<svg width="20" height="20" viewBox="0 0 20 20" fill="none" xmlns="http://www.w3.org/2000/svg">
<path fill-rule="evenodd" clip-rule="evenodd" d="M15.9586 2.72484C14.2044 0.968642 11.8716 0.00102539 9.38623 0C4.26502 0 0.0970703 4.16783 0.0950195 9.29042C0.0943164 10.928 0.52208 12.5265 1.33519 13.9355L0.0170898 18.75L4.94251 17.4579C6.29966 18.1983 7.82757 18.5884 9.38245 18.5889H9.38637C14.507 18.5889 18.6754 14.4207 18.6773 9.29786C18.6784 6.81518 17.7129 4.48096 15.9586 2.72484ZM9.38623 17.0197H9.383C7.99738 17.0191 6.63839 16.6468 5.45254 15.9433L5.1707 15.7759L2.24787 16.5426L3.02799 13.6929L2.8443 13.4008C2.07127 12.1712 1.66305 10.7501 1.66375 9.29097C1.66536 5.0332 5.12971 1.5692 9.38933 1.5692C11.452 1.56987 13.391 2.37416 14.8489 3.83385C16.3069 5.29353 17.1094 7.23378 17.1087 9.29727C17.1069 13.5554 13.6428 17.0197 9.38623 17.0197ZM13.6221 11.236C13.3901 11.1197 12.2486 10.5583 12.0357 10.4807C11.8231 10.4032 11.6682 10.3646 11.5136 10.597C11.3587 10.8293 10.9139 11.3523 10.7784 11.5071C10.6429 11.6621 10.5076 11.6815 10.2754 11.5653C10.0432 11.4491 9.29523 11.2039 8.40844 10.413C7.71836 9.79737 7.25248 9.03714 7.11698 8.80485C6.98172 8.57229 7.11581 8.45877 7.21882 8.33103C7.47012 8.01896 7.72178 7.69177 7.79916 7.53694C7.87662 7.38196 7.83783 7.24637 7.7797 7.13021C7.72178 7.01405 7.25752 5.87135 7.0641 5.40638C6.87551 4.95389 6.68426 5.01498 6.54168 5.00792C6.40641 5.00115 6.25158 4.99977 6.09675 4.99977C5.942 4.99977 5.69046 5.05778 5.47761 5.29034C5.26486 5.52278 4.66521 6.08434 4.66521 7.22704C4.66521 8.36973 5.49707 9.47361 5.61311 9.62856C5.72913 9.78354 7.25019 12.1284 9.57894 13.1339C10.1328 13.3733 10.5652 13.516 10.9025 13.623C11.4586 13.7997 11.9646 13.7748 12.3647 13.715C12.8107 13.6483 13.7381 13.1534 13.9317 12.6111C14.1251 12.0688 14.1251 11.604 14.067 11.5071C14.0091 11.4103 13.8542 11.3523 13.6221 11.236Z" fill="white"/>
</svg>
